<?xml version="1.0" encoding="utf-8"?>
<!-- Generator: Adobe Illustrator 25.4.1, SVG Export Plug-In . SVG Version: 6.00 Build 0)  -->
<svg version="1.1" id="Capa_1" xmlns="http://www.w3.org/2000/svg" xmlns:xlink="http://www.w3.org/1999/xlink" x="0px" y="0px"
	 viewBox="0 0 16 16" style="enable-background:new 0 0 16 16;" xml:space="preserve">
<style type="text/css">
	.st0{clip-path:url(#SVGID_00000087403924100798804620000005807694848302343840_);}
	.st1{fill:#FF321F;}
</style>
<g>
	<defs>
		<rect id="SVGID_1_" width="16" height="16"/>
	</defs>
	<clipPath id="SVGID_00000147931186755741331060000016280858259231060641_">
		<use xlink:href="#SVGID_1_"  style="overflow:visible;"/>
	</clipPath>
	<g style="clip-path:url(#SVGID_00000147931186755741331060000016280858259231060641_);">
		<path class="st1" d="M16,8c0,4.4-3.6,8-8,8s-8-3.6-8-8s3.6-8,8-8c2.1,0,4.2,0.8,5.7,2.3C15.2,3.8,16,5.9,16,8z M8,4
			C7.9,4,7.7,4,7.6,4.1C7.4,4.2,7.2,4.4,7.1,4.6c0,0.1-0.1,0.3,0,0.4l0.3,3.5c0,0.1,0.1,0.3,0.2,0.4c0.2,0.2,0.5,0.2,0.7,0
			c0.1-0.1,0.2-0.2,0.2-0.4L8.9,5c0-0.1,0-0.2,0-0.4C8.8,4.4,8.6,4.2,8.4,4.1C8.3,4,8.1,4,8,4z M8,10c-0.3,0-0.5,0.1-0.7,0.3
			c-0.4,0.4-0.4,1,0,1.4c0,0,0,0,0,0C7.5,11.9,7.7,12,8,12c0.3,0,0.5-0.1,0.7-0.3c0.4-0.4,0.4-1,0-1.4c0,0,0,0,0,0
			C8.5,10.1,8.3,10,8,10z"/>
	</g>
</g>
</svg>
