<?xml version="1.0" encoding="utf-8"?>
<!-- Generator: Adobe Illustrator 25.4.1, SVG Export Plug-In . SVG Version: 6.00 Build 0)  -->
<svg version="1.1" id="Capa_1" xmlns="http://www.w3.org/2000/svg" xmlns:xlink="http://www.w3.org/1999/xlink" x="0px" y="0px"
	 viewBox="0 0 30 30" style="enable-background:new 0 0 30 30;" xml:space="preserve">
<style type="text/css">
	.st0{fill-rule:evenodd;clip-rule:evenodd;fill:#1B1F23;}
</style>
<path class="st0" d="M15,0.37c-8.29,0-15,6.71-15,15c0,6.64,4.29,12.24,10.26,14.23c0.75,0.13,1.03-0.32,1.03-0.71
	c0-0.36-0.02-1.54-0.02-2.79c-3.77,0.69-4.74-0.92-5.04-1.76c-0.17-0.43-0.9-1.76-1.54-2.12c-0.53-0.28-1.27-0.97-0.02-0.99
	c1.18-0.02,2.03,1.09,2.31,1.54c1.35,2.27,3.51,1.63,4.37,1.24c0.13-0.98,0.52-1.63,0.96-2.01c-3.34-0.37-6.82-1.67-6.82-7.41
	c0-1.63,0.58-2.98,1.54-4.03c-0.15-0.38-0.67-1.91,0.15-3.97c0,0,1.26-0.39,4.13,1.54c1.2-0.34,2.48-0.51,3.75-0.51
	s2.55,0.17,3.75,0.51c2.87-1.95,4.12-1.54,4.12-1.54c0.82,2.06,0.3,3.6,0.15,3.97c0.96,1.05,1.54,2.38,1.54,4.03
	c0,5.76-3.51,7.03-6.84,7.41c0.54,0.47,1.01,1.37,1.01,2.78c0,2.01-0.02,3.62-0.02,4.12c0,0.39,0.28,0.86,1.03,0.71
	C25.71,27.61,30,21.99,30,15.37C30,7.08,23.29,0.37,15,0.37z"/>
</svg>
