<?xml version="1.0" encoding="utf-8"?>
<!-- Generator: Adobe Illustrator 25.4.1, SVG Export Plug-In . SVG Version: 6.00 Build 0)  -->
<svg version="1.1" id="Capa_1" xmlns="http://www.w3.org/2000/svg" xmlns:xlink="http://www.w3.org/1999/xlink" x="0px" y="0px"
	 viewBox="0 0 30 30" style="enable-background:new 0 0 30 30;" xml:space="preserve">
<style type="text/css">
	.st0{fill:url(#XMLID_00000075865831698893808800000013305076367477238689_);}
	.st1{fill:#FFFFFF;}
</style>
<g id="XMLID_1621_">
	
		<radialGradient id="XMLID_00000023969994400013924720000013691993890115592860_" cx="-0.7505" cy="30.0996" r="55.467" gradientUnits="userSpaceOnUse">
		<stop  offset="0" style="stop-color:#F5EC53"/>
		<stop  offset="0.2412" style="stop-color:#E48244"/>
		<stop  offset="0.3974" style="stop-color:#D15767"/>
		<stop  offset="0.4888" style="stop-color:#C84278"/>
		<stop  offset="1" style="stop-color:#192CFA"/>
	</radialGradient>
	<path id="XMLID_1630_" style="fill:url(#XMLID_00000023969994400013924720000013691993890115592860_);" d="M21.53,30H8.47
		C3.79,30,0,26.21,0,21.53V8.47C0,3.79,3.79,0,8.47,0h13.06C26.21,0,30,3.79,30,8.47v13.06C30,26.21,26.21,30,21.53,30z"/>
	<g id="XMLID_1622_">
		<path id="XMLID_1627_" class="st1" d="M15,8.26c2.2,0,2.46,0.01,3.32,0.05c0.8,0.04,1.24,0.17,1.53,0.28
			c0.38,0.15,0.66,0.33,0.95,0.62c0.29,0.29,0.47,0.56,0.62,0.95c0.11,0.29,0.25,0.73,0.28,1.53c0.04,0.87,0.05,1.13,0.05,3.32
			c0,2.2-0.01,2.46-0.05,3.32c-0.04,0.8-0.17,1.24-0.28,1.53c-0.15,0.38-0.33,0.66-0.62,0.95c-0.29,0.29-0.56,0.47-0.95,0.62
			c-0.29,0.11-0.73,0.25-1.53,0.28c-0.87,0.04-1.13,0.05-3.32,0.05s-2.46-0.01-3.32-0.05c-0.8-0.04-1.24-0.17-1.53-0.28
			c-0.38-0.15-0.66-0.33-0.95-0.62c-0.29-0.29-0.47-0.56-0.62-0.95c-0.11-0.29-0.25-0.73-0.28-1.53C8.27,17.46,8.26,17.2,8.26,15
			c0-2.2,0.01-2.46,0.05-3.32c0.04-0.8,0.17-1.24,0.28-1.53C8.74,9.77,8.92,9.49,9.2,9.2c0.29-0.29,0.56-0.47,0.95-0.62
			c0.29-0.11,0.73-0.25,1.53-0.28C12.54,8.27,12.8,8.26,15,8.26 M15,6.78c-2.23,0-2.51,0.01-3.39,0.05c-0.88,0.04-1.47,0.18-2,0.38
			c-0.54,0.21-1,0.49-1.46,0.95C7.7,8.61,7.42,9.07,7.21,9.61c-0.2,0.52-0.34,1.12-0.38,2C6.79,12.49,6.78,12.77,6.78,15
			c0,2.23,0.01,2.51,0.05,3.39c0.04,0.88,0.18,1.47,0.38,2c0.21,0.54,0.49,1,0.95,1.46c0.46,0.46,0.92,0.74,1.46,0.95
			c0.52,0.2,1.12,0.34,2,0.38c0.88,0.04,1.16,0.05,3.39,0.05s2.51-0.01,3.39-0.05c0.88-0.04,1.47-0.18,2-0.38
			c0.54-0.21,1-0.49,1.46-0.95c0.46-0.46,0.74-0.92,0.95-1.46c0.2-0.52,0.34-1.12,0.38-2c0.04-0.88,0.05-1.16,0.05-3.39
			c0-2.23-0.01-2.51-0.05-3.39c-0.04-0.88-0.18-1.47-0.38-2c-0.21-0.54-0.49-1-0.95-1.46c-0.46-0.46-0.92-0.74-1.46-0.95
			c-0.52-0.2-1.12-0.34-2-0.38C17.51,6.79,17.23,6.78,15,6.78"/>
		<path id="XMLID_1624_" class="st1" d="M15,10.78c-2.33,0-4.22,1.89-4.22,4.22s1.89,4.22,4.22,4.22c2.33,0,4.22-1.89,4.22-4.22
			S17.33,10.78,15,10.78 M15,17.74c-1.51,0-2.74-1.23-2.74-2.74c0-1.51,1.23-2.74,2.74-2.74s2.74,1.23,2.74,2.74
			C17.74,16.51,16.51,17.74,15,17.74"/>
		<path id="XMLID_1623_" class="st1" d="M20.38,10.61c0,0.55-0.44,0.99-0.99,0.99c-0.55,0-0.99-0.44-0.99-0.99s0.44-0.99,0.99-0.99
			C19.94,9.62,20.38,10.06,20.38,10.61"/>
	</g>
</g>
</svg>
