<?xml version="1.0" encoding="utf-8"?>
<!-- Generator: Adobe Illustrator 25.4.1, SVG Export Plug-In . SVG Version: 6.00 Build 0)  -->
<svg version="1.1" id="Capa_1" xmlns="http://www.w3.org/2000/svg" xmlns:xlink="http://www.w3.org/1999/xlink" x="0px" y="0px"
	 viewBox="0 0 30 30" style="enable-background:new 0 0 30 30;" xml:space="preserve">
<style type="text/css">
	.st0{fill:#117BB8;}
	.st1{fill:#FFFFFF;}
</style>
<g id="XMLID_1560_">
	<path id="XMLID_1566_" class="st0" d="M21.53,30H8.47C3.79,30,0,26.21,0,21.53V8.47C0,3.79,3.79,0,8.47,0h13.06
		C26.21,0,30,3.79,30,8.47v13.06C30,26.21,26.21,30,21.53,30z"/>
	<g id="XMLID_1561_">
		<g id="XMLID_1563_">
			<rect id="XMLID_1565_" x="8.9" y="11.95" class="st1" width="3" height="9.71"/>
			<path id="XMLID_1564_" class="st1" d="M10.39,10.68c0.98,0,1.78-0.8,1.78-1.79s-0.8-1.79-1.78-1.79c-0.98,0-1.78,0.8-1.78,1.79
				S9.4,10.68,10.39,10.68z"/>
		</g>
		<path id="XMLID_1562_" class="st1" d="M16.71,16.57c0-1.36,0.63-2.18,1.83-2.18c1.1,0,1.64,0.78,1.64,2.18c0,1.4,0,5.1,0,5.1h2.99
			c0,0,0-3.55,0-6.15c0-2.6-1.47-3.86-3.53-3.86c-2.06,0-2.93,1.6-2.93,1.6v-1.31h-2.88v9.71h2.88
			C16.71,21.66,16.71,18.06,16.71,16.57z"/>
	</g>
</g>
</svg>
